<svg id="Capa_1" enable-background="new 0 0 512 512" height="512" viewBox="0 0 512 512" width="512" xmlns="http://www.w3.org/2000/svg"><path d="m447.203 136.269v354.486c0 11.733-9.512 21.245-21.245 21.245h-339.916c-11.733 0-21.245-9.512-21.245-21.245v-469.51c0-11.733 9.511-21.245 21.245-21.245h224.893c5.634 0 11.038 2.238 15.022 6.222l115.024 115.024c3.984 3.985 6.222 9.388 6.222 15.023z" fill="#f1f1fb"/><path d="m440.981 121.246-115.024-115.024c-3.984-3.984-9.388-6.222-15.022-6.222h-54.935v512h169.958c11.733 0 21.245-9.512 21.245-21.245v-354.486c0-5.635-2.238-11.038-6.222-15.023z" fill="#d7d6fb"/><path d="m343.968 127.411h101.274c-1.042-2.268-2.463-4.366-4.261-6.164l-115.024-115.025c-1.94-1.94-4.22-3.457-6.695-4.512v100.994c0 13.645 11.061 24.707 24.706 24.707z" fill="#a0a0ce"/><g fill="#354a67"><path d="m367.671 228.535h-95.571c-8.284 0-15-6.716-15-15s6.716-15 15-15h95.571c8.284 0 15 6.716 15 15s-6.716 15-15 15z"/><path d="m367.671 328.535h-95.571c-8.284 0-15-6.716-15-15s6.716-15 15-15h95.571c8.284 0 15 6.716 15 15s-6.716 15-15 15z"/><path d="m368.1 428.535h-96c-8.284 0-15-6.716-15-15s6.716-15 15-15h96c8.284 0 15 6.716 15 15s-6.716 15-15 15z"/></g><path d="m162.664 243.497c-3.979 0-7.794-1.581-10.607-4.394l-18.763-18.764c-5.857-5.858-5.857-15.355 0-21.213 5.858-5.857 15.354-5.857 21.213 0l8.156 8.157 34.592-34.591c5.858-5.858 15.355-5.858 21.213 0s5.858 15.355 0 21.213l-45.199 45.198c-2.811 2.814-6.627 4.394-10.605 4.394z" fill="#466288"/><path d="m162.664 351.134c-3.979 0-7.793-1.58-10.607-4.394l-18.763-18.764c-5.857-5.858-5.857-15.355 0-21.213 5.858-5.858 15.354-5.858 21.213 0l8.156 8.156 34.592-34.592c5.857-5.857 15.355-5.857 21.213 0s5.858 15.355 0 21.213l-45.199 45.199c-2.811 2.815-6.627 4.395-10.605 4.395z" fill="#466288"/><path d="m162.664 451.134c-3.979 0-7.793-1.58-10.607-4.394l-18.763-18.764c-5.857-5.858-5.857-15.355 0-21.213 5.858-5.858 15.354-5.858 21.213 0l8.156 8.156 34.592-34.592c5.857-5.857 15.355-5.857 21.213 0s5.858 15.355 0 21.213l-45.199 45.199c-2.811 2.815-6.627 4.395-10.605 4.395z" fill="#466288"/></svg>